# xmcd
#
# Track frame offsets:
#	150
#	17159
#	36173
#	50621
#	63924
#	74556
#	87652
#	103957
#	117924
#	133230
#	146855
#	160968
#	177922
#	191635
#
# Disc length: 2751 seconds
#
# Revision: 0
# Processed by: cddbd v1.5.2PL0 Copyright (c) Steve Scherf et al.
# Submitted via: EasyCDDAExtractor 11.0.2.1
#
DISCID=db0abd0e
DTITLE=Various Artist - Pelos caminhos do Pampa
DYEAR=1900
DGENRE=Gaucha
TTITLE0=Vilmar Romera - Negrinho do Pastoreio
TTITLE1=Os Farrapos - Pampa na Garupa
TTITLE2=Som Campeiro - Bugio de Fole Solto
TTITLE3=David Menezes Jr - Viva a Cueca Vanerão
TTITLE4=Poca Veia e Troperitos - Marca Velha
TTITLE5=Neto Fagundes - Gaita de Botão
TTITLE6=Antoni Gringo - Cativeiros
TTITLE7=Mano lima - Se queixando igual a mulher que apanha do marido
TTITLE8=Os Serranos - Tche Gaiteiro
TTITLE9=Grupo Rodeio - Se enredando nas esporas
TTITLE10=Joao de Almeida Neto - Tango do Meretricio
TTITLE11=Berenice Azambuja - Baile de Sapucay
TTITLE12=Bruno Neher e os Xirus - Quem tem....Tem Medo
TTITLE13=Vilmar Romera - Ultima esperança
EXTD=
EXTT0=
EXTT1=
EXTT2=
EXTT3=
EXTT4=
EXTT5=
EXTT6=
EXTT7=
EXTT8=
EXTT9=
EXTT10=
EXTT11=
EXTT12=
EXTT13=
PLAYORDER=
